<?xml version="1.0" standalone="no"?>
<!DOCTYPE svg PUBLIC "-//W3C//DTD SVG 20010904//EN"
 "http://www.w3.org/TR/2001/REC-SVG-20010904/DTD/svg10.dtd">
<svg version="1.0" xmlns="http://www.w3.org/2000/svg"
 width="1024.000000pt" height="1024.000000pt" viewBox="0 0 1024.000000 1024.000000"
 preserveAspectRatio="xMidYMid meet">
<metadata>
Created by potrace 1.16, written by Peter Selinger 2001-2019
</metadata>
<g transform="translate(0.000000,1024.000000) scale(0.100000,-0.100000)"
fill="#1a2332" stroke="none">
<path d="M8000 8257 c0 -39 -21 -62 -65 -72 -140 -33 -366 -218 -425 -348 -54
-119 -65 -178 -64 -342 2 -258 51 -651 248 -2000 25 -170 100 -695 166 -1165
67 -470 130 -901 141 -957 47 -247 147 -450 286 -585 108 -105 247 -165 404
-175 l89 -6 0 -70 0 -70 -61 7 c-34 3 -509 6 -1055 6 l-994 0 0 60 c0 59 0 60
28 60 38 0 128 31 205 72 87 45 224 183 265 268 83 170 82 338 -6 955 -34 231
-84 584 -112 785 -64 458 -177 1192 -280 1815 -43 264 -82 507 -85 540 -9 83
-15 115 -24 115 -4 0 -36 -69 -71 -152 -35 -84 -126 -295 -203 -468 -76 -173
-195 -445 -262 -605 -154 -363 -438 -1022 -738 -1710 -127 -291 -272 -631
-323 -755 -90 -218 -93 -225 -122 -228 -35 -4 -3 -68 -292 578 -114 256 -229
510 -255 565 -147 312 -400 886 -710 1610 -148 346 -187 434 -317 715 -50 107
-110 245 -133 305 -55 141 -66 165 -75 160 -4 -3 -10 -37 -14 -77 -9 -101 -99
-792 -141 -1083 -48 -332 -177 -1274 -220 -1600 -20 -148 -57 -412 -82 -585
-41 -284 -46 -333 -46 -500 -1 -214 13 -294 68 -406 38 -78 137 -187 215 -236
62 -40 162 -68 267 -76 l88 -7 3 -62 3 -63 -936 0 -935 0 0 65 0 65 73 0 c157
0 287 59 417 190 93 92 150 179 199 303 44 109 65 198 116 481 26 138 73 395
106 571 54 288 87 481 243 1405 24 146 74 461 110 700 36 239 84 561 108 715
36 242 42 303 42 450 1 161 -1 175 -28 258 -49 150 -128 255 -286 382 -92 74
-164 112 -242 127 -59 11 -67 15 -71 38 -3 14 -1 29 4 34 11 12 1236 20 1339
9 l75 -8 -3 -87 c-3 -60 1 -104 13 -143 9 -32 88 -222 177 -424 88 -201 310
-715 493 -1141 313 -728 403 -937 685 -1587 63 -145 119 -263 126 -263 11 0
82 149 157 330 19 47 133 306 252 575 119 270 275 623 345 785 70 162 180 417
245 565 152 351 439 1053 460 1129 17 57 17 101 -1 238 l-6 48 469 2 c257 2
577 4 711 6 l242 3 0 -34z"/>
</g>
</svg>
